# xmcd
# 
# Track frame offsets:
#     150
#     15153
#     28633
#     43468
#     58993
#     75930
#     95768
#     110205
#     127870
#     145353
#     159908
#     176580
#     194203
#     211435
#     224780
#     242073
#     258108
#     273120
# 
# Disc length: 3839
# 
# Revision: 3
# Processed by: cddbd v1.5.2PL0 Copyright (c) Steve Scherf et al.
# Submitted via: fre:ac v1.0.27
# 
DISCID=0b0efd12
DTITLE=Various Artist - 続・青春歌年鑑 ’75 PLUS
DYEAR=2002
DGENRE=JPop
TTITLE0=岩崎宏美 - ロマンス
TTITLE1=郷ひろみ - 花のように鳥のように
TTITLE2=山口百恵 - 湖の決心
TTITLE3=西城秀樹 - この愛のときめき
TTITLE4=西川峰子 - あなたにあげる
TTITLE5=南沙織 - 人恋しくて
TTITLE6=風 - 22才の別れ
TTITLE7=吉田拓郎 - となりの町のお嬢さん
TTITLE8=マイ・ペース - 東京
TTITLE9=内山田洋とクールファイブ - 中の島ブルース
TTITLE10=殿さまキングス - おんなの運命
TTITLE11=徳久広司 - 北へ帰ろう
TTITLE12=八代亜紀 - おんなの夢
TTITLE13=西崎みどり - 旅愁
TTITLE14=五木ひろし - 千曲川
TTITLE15=野口五郎 - 哀しみの終わるとき
TTITLE16=山口百恵 - ささやかな欲望
TTITLE17=桜田淳子 - はじめての出来事
EXTD=2002/11/27\nビクターエンタテインメント VICL-61016
EXTT0=
EXTT1=
EXTT2=
EXTT3=
EXTT4=
EXTT5=
EXTT6=
EXTT7=
EXTT8=
EXTT9=
EXTT10=
EXTT11=
EXTT12=
EXTT13=
EXTT14=
EXTT15=
EXTT16=
EXTT17=
PLAYORDER=
